<svg id="Z5_sq-44" xmlns="http://www.w3.org/2000/svg" width="44" height="44" viewBox="0 0 44 44">
  <rect id="Rectangle_17604" data-name="Rectangle 17604" width="44" height="44" rx="8" fill="#090912"/>
  <g id="Group_11582" data-name="Group 11582">
    <path id="Path_24661" data-name="Path 24661" d="M24.61,10.85H8.68v.78H19.61L8.25,33.15H24.18v-.78H13.25L24.61,10.85h0Z" fill="#fff"/>
    <path id="Path_24662" data-name="Path 24662" d="M30.24,30.36a6.265,6.265,0,0,1-2.79-.59,5.109,5.109,0,0,1-1.9-1.6,5.773,5.773,0,0,1-.94-2.28h1.05a4.415,4.415,0,0,0,1.52,2.58,4.765,4.765,0,0,0,3.05.94,3.7,3.7,0,0,0,2.39-.63,4.291,4.291,0,0,0,1.5-1.74,5.548,5.548,0,0,0,.54-2.46,5.487,5.487,0,0,0-.54-2.46,4.044,4.044,0,0,0-1.55-1.72,4.249,4.249,0,0,0-2.3-.61,5.608,5.608,0,0,0-2.7.68,4.347,4.347,0,0,0-1.67,1.81h-.99l1.36-8.64h8.26v.94H27.11l-1.03,6.13a4.538,4.538,0,0,1,1.67-1.32,5.773,5.773,0,0,1,2.56-.54,4.632,4.632,0,0,1,2.09.4,4.813,4.813,0,0,1,1.72,1.18,5.407,5.407,0,0,1,1.18,1.81,6.193,6.193,0,0,1,.42,2.35,6.313,6.313,0,0,1-.35,2.16,5.183,5.183,0,0,1-1.03,1.85,5.122,5.122,0,0,1-1.72,1.29,5.66,5.66,0,0,1-2.39.47v-.02Z" fill="#fff"/>
  </g>
</svg>
